<?xml version="1.0" standalone="no"?>
<!DOCTYPE svg PUBLIC "-//W3C//DTD SVG 20010904//EN"
 "http://www.w3.org/TR/2001/REC-SVG-20010904/DTD/svg10.dtd">
<svg version="1.0" xmlns="http://www.w3.org/2000/svg"
 width="660.000000pt" height="525.000000pt" viewBox="0 0 660.000000 525.000000"
 preserveAspectRatio="xMidYMid meet">

<g transform="translate(0.000000,525.000000) scale(0.100000,-0.100000)"
fill="#000000" stroke="none">
<path d="M4340 4509 c0 -5 5 -7 10 -4 6 3 10 8 10 11 0 2 -4 4 -10 4 -5 0 -10
-5 -10 -11z"/>
<path d="M3636 4441 c-29 -57 -42 -63 -56 -26 -17 45 -26 26 -22 -46 4 -66 2
-75 -33 -142 -21 -40 -50 -88 -65 -107 -15 -19 -40 -60 -55 -90 -23 -46 -73
-114 -121 -166 -6 -7 -35 -28 -65 -47 -30 -19 -65 -47 -78 -61 l-25 -26 35
-37 c19 -21 36 -40 39 -43 9 -8 30 -86 29 -106 -1 -14 -3 -13 -9 6 -7 22 -8
23 -9 4 -1 -12 -8 -27 -16 -34 -8 -7 -24 -32 -34 -55 -10 -24 -28 -52 -39 -63
-12 -12 -26 -40 -33 -62 -7 -23 -19 -44 -26 -47 -7 -3 -13 -11 -13 -17 0 -7
-9 -21 -19 -33 -11 -11 -21 -31 -23 -43 -3 -23 -4 -23 -33 9 -29 30 -114 91
-129 91 -14 0 8 -124 30 -171 24 -49 32 -119 15 -119 -5 0 -12 6 -14 13 -2 6
-3 0 -1 -15 2 -15 1 -35 -2 -43 -10 -24 -23 -8 -18 23 2 15 -2 45 -10 67 l-14
39 -20 -64 c-12 -36 -39 -117 -62 -180 -22 -63 -45 -135 -50 -160 -5 -25 -17
-65 -28 -90 l-19 -45 -10 35 c-6 19 -33 87 -62 151 -34 77 -51 129 -51 156 0
59 -19 71 -78 50 -35 -13 -63 -16 -107 -11 -49 5 -63 3 -74 -10 -18 -22 -7
-46 22 -46 34 0 138 -44 149 -64 5 -9 18 -69 29 -134 28 -163 45 -226 86 -307
40 -83 54 -95 105 -95 28 0 45 7 67 29 37 36 102 46 240 38 83 -5 114 -13 230
-56 141 -54 233 -81 274 -81 34 0 87 51 87 84 0 56 -81 245 -150 352 -46 69
-46 72 -22 90 14 11 15 16 5 31 -47 67 -77 133 -110 233 -35 110 -37 121 -37
250 0 98 5 151 17 195 10 33 20 93 24 134 5 63 11 79 39 115 18 22 50 67 71
99 21 32 56 81 78 110 62 79 80 113 120 227 40 115 84 173 158 212 45 23 44
32 -1 19 -42 -13 -43 7 -1 38 17 13 28 25 25 29 -4 3 -20 -5 -37 -17 -40 -30
-47 -21 -19 24 31 51 17 55 -18 6 -33 -46 -48 -41 -31 8 18 52 2 47 -25 -8z
m-779 -1258 c-3 -10 -5 -4 -5 12 0 17 2 24 5 18 2 -7 2 -21 0 -30z m-56 -277
c11 7 1 -46 -12 -60 -4 -5 -5 1 -2 13 8 29 -3 26 -21 -6 -21 -39 -20 -7 2 38
9 20 18 31 20 23 2 -8 8 -12 13 -8z m271 -322 c32 -16 138 -111 138 -123 0 -3
-33 -6 -72 -6 -40 0 -94 -4 -119 -8 -44 -8 -48 -7 -78 22 -34 34 -49 32 -95
-10 -11 -11 -24 -19 -28 -19 -26 0 71 103 132 139 42 25 80 27 122 5z"/>
<path d="M4100 4279 c0 -5 5 -7 10 -4 6 3 10 8 10 11 0 2 -4 4 -10 4 -5 0 -10
-5 -10 -11z"/>
<path d="M4110 4140 c0 -5 4 -10 9 -10 6 0 13 5 16 10 3 6 -1 10 -9 10 -9 0
-16 -4 -16 -10z"/>
<path d="M2910 4090 c-25 -10 -57 -21 -71 -24 -45 -10 -68 -38 -98 -118 -16
-43 -25 -75 -20 -72 5 3 9 -4 9 -16 0 -12 5 -18 10 -15 14 9 12 -19 -2 -34
-11 -10 -9 -11 6 -5 13 5 17 4 12 -4 -4 -7 -3 -12 3 -12 6 0 8 -7 5 -15 -6
-15 5 -20 35 -15 7 1 24 -9 37 -21 14 -13 37 -23 56 -23 26 -1 34 -6 42 -29 7
-19 7 -30 0 -35 -6 -4 -17 -24 -23 -45 -11 -32 -10 -42 2 -60 15 -24 75 -47
118 -47 31 0 89 36 89 55 0 8 5 15 10 15 21 0 8 59 -25 110 -19 30 -35 60 -35
65 0 6 18 21 39 35 22 13 38 27 35 31 -2 4 3 10 12 13 8 3 12 10 9 16 -3 5 -3
16 2 23 4 6 8 18 9 25 2 8 10 22 19 32 11 12 13 20 5 25 -8 5 -8 11 1 21 9 11
8 14 -5 14 -9 0 -24 9 -33 20 -10 11 -21 20 -26 20 -5 0 -26 13 -46 29 -73 57
-117 67 -181 41z"/>
<path d="M2305 4060 c3 -14 9 -34 12 -44 6 -19 5 -19 -18 -3 -25 18 -49 22
-49 9 0 -4 12 -15 28 -25 l27 -18 -28 6 c-21 4 -28 2 -25 -7 3 -7 14 -14 26
-16 28 -4 29 -32 2 -32 -11 0 -20 -4 -20 -8 0 -4 26 -8 57 -8 52 -1 60 -4 78
-30 37 -54 287 -296 336 -326 33 -20 51 -38 55 -56 17 -76 21 -79 29 -17 7 62
35 137 54 149 6 4 11 11 11 16 0 10 -56 30 -85 30 -23 0 -129 71 -204 137 -24
21 -73 62 -110 91 -73 59 -79 68 -80 130 -1 26 -5 41 -11 37 -5 -3 -10 -15
-10 -25 0 -34 -21 -33 -52 1 -27 32 -29 32 -23 9z"/>
<path d="M4835 3656 c-40 -49 -55 -57 -55 -28 0 37 -14 31 -28 -10 -16 -47
-15 -46 -127 -122 -44 -30 -107 -77 -140 -105 -32 -28 -62 -51 -66 -51 -4 0
-28 -18 -55 -40 -26 -21 -51 -37 -55 -34 -4 2 -10 0 -14 -6 -4 -6 -10 -8 -15
-5 -5 3 -12 -15 -15 -40 -4 -25 -10 -43 -14 -40 -4 2 -7 -4 -7 -13 0 -57 -5
-72 -21 -72 -10 0 -27 -7 -37 -15 -11 -8 -28 -15 -38 -15 -10 0 -17 -5 -15
-12 1 -9 -18 -13 -62 -14 -38 -1 -66 -6 -71 -14 -4 -6 -19 -13 -33 -13 -14 -1
-23 -5 -21 -8 2 -3 -8 -17 -21 -29 -14 -13 -25 -33 -26 -44 0 -12 -3 -15 -6
-8 -11 27 -21 9 -33 -55 -6 -38 -22 -95 -35 -128 -13 -33 -33 -94 -45 -135
-11 -41 -28 -91 -37 -110 -15 -34 -23 -90 -43 -310 -5 -58 -14 -125 -20 -149
-8 -31 -8 -66 0 -122 6 -43 10 -116 9 -163 -1 -65 2 -92 15 -111 9 -14 20 -25
25 -25 17 0 33 59 27 94 -5 26 -1 46 14 76 18 36 19 43 6 61 -15 23 -11 52 18
107 9 17 16 43 16 57 0 40 38 170 65 222 13 27 29 60 36 76 9 22 17 27 44 27
31 0 32 -1 39 -52 3 -29 6 -96 6 -148 1 -61 6 -109 16 -135 9 -22 22 -67 29
-100 7 -33 21 -82 30 -110 9 -30 13 -64 10 -83 -6 -30 -9 -165 -6 -219 1 -27
27 -30 57 -9 17 13 19 29 22 148 7 324 7 333 -8 365 -12 29 -12 45 3 135 10
57 17 119 17 138 0 24 7 41 21 54 20 17 21 24 17 199 -3 111 -10 201 -19 230
-12 42 -11 56 4 113 9 36 24 72 32 80 8 9 15 20 15 25 0 6 15 43 34 82 25 54
44 80 72 99 22 14 73 59 115 99 41 41 96 89 121 107 25 18 75 59 110 92 62 56
110 82 188 100 23 5 27 8 13 9 -38 2 -35 19 8 46 22 15 38 29 35 32 -3 3 -17
-2 -30 -11 -43 -28 -52 -18 -16 19 41 42 32 60 -10 20 -32 -31 -40 -24 -14 13
30 43 6 33 -31 -12z"/>
<path d="M3556 3583 c-6 -14 -5 -15 5 -6 7 7 10 15 7 18 -3 3 -9 -2 -12 -12z"/>
<path d="M4026 3551 c-10 -11 -24 -17 -31 -15 -20 8 -93 -155 -77 -171 4 -3 0
-10 -8 -15 -12 -8 -12 -10 -1 -10 7 0 11 -6 8 -15 -4 -8 8 -28 29 -49 32 -32
34 -38 34 -100 0 -53 4 -70 21 -87 13 -13 27 -18 37 -14 9 4 22 8 29 8 7 0 10
4 7 8 -2 4 20 34 50 66 31 32 56 64 56 71 0 9 7 11 20 7 17 -5 20 -2 21 22 0
15 3 22 6 16 7 -18 23 -16 23 1 0 8 9 18 21 21 20 7 20 7 2 22 -17 14 -17 14
0 9 13 -4 16 -2 10 7 -4 6 -6 23 -5 37 3 30 -31 135 -51 154 -47 48 -168 64
-201 27z"/>
<path d="M3626 3503 c-6 -14 -5 -15 5 -6 7 7 10 15 7 18 -3 3 -9 -2 -12 -12z"/>
<path d="M5945 3513 c24 -6 45 -23 28 -23 -7 0 -24 5 -40 10 -25 9 -26 9 -10
-4 14 -10 15 -15 5 -19 -7 -3 19 -6 57 -6 67 0 69 0 40 14 -24 11 -26 14 -10
15 17 2 16 3 -5 10 -14 4 -38 8 -55 8 -20 0 -23 -2 -10 -5z"/>
<path d="M3587 3483 c-11 -10 -9 -16 23 -53 16 -19 32 -31 36 -28 3 4 -9 21
-27 38 -28 25 -31 32 -19 40 8 5 10 10 4 10 -6 0 -14 -3 -17 -7z"/>
<path d="M5888 3483 c7 -3 16 -2 19 1 4 3 -2 6 -13 5 -11 0 -14 -3 -6 -6z"/>
<path d="M3660 3469 c0 -6 -9 -8 -22 -3 -22 6 -22 6 -5 -13 9 -11 17 -24 17
-30 0 -6 7 -13 15 -17 8 -3 15 -11 15 -18 0 -9 -3 -9 -10 2 -5 8 -12 11 -16 8
-12 -13 160 -208 184 -208 7 0 12 13 12 29 0 16 4 41 10 55 8 23 6 28 -18 40
-15 8 -60 49 -100 90 -73 77 -82 84 -82 65z"/>
<path d="M1540 3263 c0 -13 5 -23 10 -23 13 0 13 11 0 30 -8 12 -10 11 -10 -7z"/>
<path d="M5438 3255 c-29 -25 -119 -51 -144 -41 -11 4 -13 13 -9 27 5 15 4 19
-4 15 -6 -4 -11 -18 -11 -31 0 -24 -6 -28 -69 -40 -29 -6 -32 -9 -17 -17 16
-9 15 -12 -8 -33 -14 -13 -26 -31 -26 -39 0 -10 -6 -13 -15 -10 -17 7 -22 -31
-5 -41 19 -12 10 -35 -12 -35 -22 -1 -22 -1 -4 -12 14 -8 24 -8 37 0 20 13 30
6 22 -14 -3 -8 -19 -14 -39 -14 -19 0 -34 -3 -34 -8 0 -14 41 -33 61 -27 31
10 22 -5 -11 -16 -25 -9 -30 -16 -30 -44 0 -25 5 -34 23 -39 l22 -6 -23 -13
c-17 -10 -19 -16 -11 -24 13 -13 20 -103 8 -103 -5 0 -10 -55 -11 -122 l-3
-123 -37 2 c-21 1 -55 11 -76 22 -41 21 -69 19 -144 -11 -35 -13 -37 -23 -39
-133 -1 -113 27 -254 82 -419 52 -159 88 -219 159 -268 l54 -38 21 23 c20 23
87 77 115 92 12 7 12 5 -1 -11 -9 -10 -14 -25 -12 -32 3 -8 -4 -16 -16 -19
-13 -3 -21 -14 -21 -27 -1 -20 -1 -20 -14 3 -8 15 -16 20 -20 12 -4 -6 -2 -11
3 -11 6 0 11 -7 11 -16 0 -10 -5 -14 -16 -10 -9 3 -12 2 -9 -5 4 -6 13 -8 21
-5 8 3 11 0 8 -9 -3 -7 5 -19 19 -27 64 -34 200 -131 235 -167 50 -52 68 -90
77 -165 l7 -59 30 74 c16 40 34 79 39 85 5 6 6 19 3 28 -5 12 0 19 15 23 20 5
20 6 5 18 -16 11 -14 16 17 61 19 27 37 50 40 52 3 1 5 19 3 39 -1 21 1 32 4
26 4 -7 13 -9 20 -4 10 6 2 13 -25 26 -21 10 -83 63 -138 118 -55 55 -119 113
-143 129 -33 23 -41 34 -37 49 8 24 -37 68 -78 76 -15 3 -32 14 -37 24 -6 10
-19 21 -30 24 -14 4 -20 15 -20 36 0 16 -5 49 -12 74 -10 36 -9 55 1 93 7 26
15 84 18 130 5 75 4 82 -13 83 -11 0 -13 3 -6 6 8 3 12 26 12 63 0 32 5 62 10
65 6 3 10 15 10 25 0 10 16 45 35 77 19 32 35 62 35 66 0 4 17 34 38 65 52 79
182 343 189 385 4 29 0 40 -24 65 l-28 30 -27 -23z m-27 -1575 c68 -35 133
-90 155 -131 16 -31 19 -99 4 -99 -5 0 -42 39 -82 87 -40 49 -90 104 -110 124
-60 58 -53 62 33 19z"/>
<path d="M1476 3241 c-4 -5 3 -7 14 -4 23 6 26 13 6 13 -8 0 -17 -4 -20 -9z"/>
<path d="M1580 3180 c-9 -16 -8 -20 5 -20 8 0 15 9 15 20 0 11 -2 20 -5 20 -2
0 -9 -9 -15 -20z"/>
<path d="M1482 3129 c2 -6 8 -10 13 -10 5 0 11 4 13 10 2 6 -4 11 -13 11 -9 0
-15 -5 -13 -11z"/>
<path d="M4388 3043 c-4 -24 23 -83 39 -83 7 0 13 -4 13 -10 0 -11 72 -13 108
-4 13 4 21 12 18 19 -2 7 1 18 7 24 17 17 -11 33 -45 27 -33 -6 -88 12 -85 27
1 7 -10 13 -25 15 -19 2 -27 -2 -30 -15z"/>
<path d="M1780 3039 c0 -16 27 -46 35 -38 2 2 -5 15 -15 29 -15 19 -20 21 -20
9z"/>
<path d="M5095 3040 c3 -5 8 -10 11 -10 2 0 4 5 4 10 0 6 -5 10 -11 10 -5 0
-7 -4 -4 -10z"/>
<path d="M1739 3023 c-1 -5 0 -18 0 -29 1 -12 -6 -30 -16 -39 -31 -31 -10
-102 22 -75 8 7 15 9 15 4 0 -5 6 0 12 10 8 15 8 21 0 24 -15 5 -16 44 -1 59
14 14 2 53 -17 53 -8 0 -14 -3 -15 -7z"/>
<path d="M4983 2974 c-3 -9 -17 -28 -29 -42 -25 -27 -30 -42 -14 -42 6 0 10 5
10 11 0 5 5 7 10 4 6 -3 10 -11 10 -16 0 -6 -4 -8 -9 -5 -5 3 -12 -1 -15 -10
-8 -22 -8 -26 3 -20 5 4 7 -4 3 -16 -3 -14 -2 -19 7 -14 8 6 8 1 -1 -18 -16
-36 -3 -44 22 -15 45 51 57 119 28 155 -4 6 -6 19 -2 28 3 9 1 16 -5 16 -7 0
-14 -7 -18 -16z"/>
<path d="M4425 2931 c16 -16 62 -24 69 -12 4 6 1 9 -7 5 -7 -2 -27 0 -43 6
-17 7 -25 7 -19 1z"/>
<path d="M4579 2923 c-13 -16 -12 -17 4 -4 9 7 17 15 17 17 0 8 -8 3 -21 -13z"/>
<path d="M4515 2919 c-4 -6 -5 -12 -2 -15 2 -3 7 2 10 11 7 17 1 20 -8 4z"/>
<path d="M2011 2860 c0 -14 28 -72 29 -59 0 4 -7 22 -15 40 -8 19 -14 27 -14
19z"/>
<path d="M1753 2816 c-7 -8 -22 -21 -34 -30 -20 -14 -21 -18 -9 -46 7 -17 15
-29 17 -26 3 2 -1 14 -7 27 -11 19 -10 25 6 36 30 22 63 16 76 -13 11 -23 10
-28 -7 -40 -11 -7 -25 -18 -31 -23 -7 -5 -15 -7 -18 -4 -3 4 -6 -1 -6 -11 0
-21 26 -15 78 16 37 23 37 21 16 61 -9 18 -20 39 -24 47 -9 20 -42 23 -57 6z"/>
<path d="M1915 2764 c-40 -21 -40 -18 -14 -63 24 -44 37 -46 87 -13 27 17 27
19 2 60 -22 36 -32 38 -75 16z m72 -35 c12 -15 10 -17 -18 -23 -37 -7 -49 -1
-49 23 0 21 43 45 49 27 2 -6 10 -18 18 -27z"/>
<path d="M1692 2606 c-12 -27 -1 -35 25 -18 10 7 10 12 0 26 -12 17 -14 16
-25 -8z"/>
<path d="M2069 2602 c-8 -10 -13 -24 -11 -31 3 -9 -2 -11 -19 -7 -23 7 -23 6
-5 -8 11 -9 30 -14 43 -12 23 5 32 -8 13 -19 -5 -3 -10 -12 -10 -18 0 -8 4 -7
9 2 13 21 36 0 67 -60 13 -26 28 -50 34 -54 12 -8 -25 68 -54 109 -12 17 -28
49 -36 73 -14 41 -16 42 -31 25z"/>
<path d="M1720 2560 c-41 -22 -80 -40 -87 -40 -7 0 -17 -17 -24 -38 -10 -35
-9 -43 13 -78 13 -21 37 -65 53 -97 38 -76 47 -82 76 -56 13 11 18 18 12 14
-22 -11 -14 17 12 41 28 26 46 13 19 -14 -32 -32 13 -27 68 7 27 17 55 31 62
31 18 0 36 21 36 43 0 46 -116 227 -145 226 -11 0 -54 -18 -95 -39z m111 -122
c11 -21 17 -43 14 -48 -9 -14 -81 -50 -100 -50 -14 0 -70 98 -61 107 2 2 25
14 52 27 56 27 64 24 95 -36z"/>
<path d="M1937 2554 c-13 -13 -7 -39 11 -50 23 -15 55 6 50 33 -3 18 -47 31
-61 17z"/>
<path d="M2100 2494 c0 -5 7 -18 15 -28 8 -11 15 -16 15 -10 0 5 -7 18 -15 28
-8 11 -15 16 -15 10z"/>
<path d="M2057 2389 c-26 -15 -4 -53 26 -43 29 9 30 9 22 33 -7 23 -21 26 -48
10z"/>
<path d="M2206 2365 c4 -8 8 -15 10 -15 2 0 4 7 4 15 0 8 -4 15 -10 15 -5 0
-7 -7 -4 -15z"/>
<path d="M888 2113 c-15 -4 -14 -9 8 -56 34 -74 32 -89 -10 -82 -30 6 -36 3
-58 -27 -43 -57 -42 -63 19 -120 31 -29 65 -61 75 -70 17 -17 17 -20 -3 -70
-34 -84 -49 -138 -49 -178 0 -34 3 -38 39 -48 67 -20 76 -17 100 37 12 28 25
67 29 88 l8 38 53 -3 c66 -5 85 11 108 87 27 88 21 407 -6 362 -13 -21 -78
-26 -97 -7 -9 9 -14 20 -10 23 3 3 -2 12 -12 19 -16 13 -154 18 -194 7z"/>
<path d="M1110 2096 c0 -2 11 -6 25 -8 13 -3 22 -1 19 3 -5 9 -44 13 -44 5z"/>
<path d="M2360 2005 c-23 -8 -41 -10 -52 -4 -28 15 -22 -6 14 -47 25 -28 32
-44 29 -70 -2 -28 2 -36 24 -46 16 -7 37 -32 51 -60 25 -50 76 -91 100 -81 27
10 14 52 -33 110 -63 77 -83 118 -83 170 0 24 -3 42 -7 42 -5 -1 -24 -7 -43
-14z"/>
<path d="M1581 1744 c0 -11 3 -14 6 -6 3 7 2 16 -1 19 -3 4 -6 -2 -5 -13z"/>
<path d="M5492 1080 c-11 -17 -10 -20 7 -20 14 0 18 5 14 20 -3 11 -6 20 -7
20 -1 0 -7 -9 -14 -20z"/>
</g>
</svg>
