<?xml version="1.0" standalone="no"?>
<!DOCTYPE svg PUBLIC "-//W3C//DTD SVG 20010904//EN"
 "http://www.w3.org/TR/2001/REC-SVG-20010904/DTD/svg10.dtd">
<svg version="1.0" xmlns="http://www.w3.org/2000/svg"
 width="800.000000pt" height="800.000000pt" viewBox="0 0 800.000000 800.000000"
 preserveAspectRatio="xMidYMid meet">

<g transform="translate(0.000000,800.000000) scale(0.100000,-0.100000)"
fill="#000000" stroke="none">
<path d="M4160 7192 c-15 -12 -23 -35 -30 -83 -14 -99 -15 -318 -2 -365 17
-60 48 -96 81 -92 25 3 26 6 31 82 l5 79 23 -48 c63 -130 107 -176 140 -143
19 19 15 38 -27 107 -21 36 -46 87 -55 112 -18 46 -17 47 7 96 14 27 28 68 32
92 12 78 -50 161 -120 161 -14 0 -35 4 -45 10 -13 7 -24 5 -40 -8z m104 -98
c30 -29 10 -134 -25 -134 -10 0 -13 133 -2 143 9 9 9 9 27 -9z"/>
<path d="M3422 7157 c-22 -26 -36 -229 -25 -365 9 -112 12 -126 35 -149 23
-22 28 -24 49 -13 36 19 39 28 39 118 l0 82 29 0 c34 0 76 31 96 70 36 70 6
197 -58 242 -40 28 -146 38 -165 15z m143 -120 c29 -42 9 -117 -30 -117 -20 0
-23 6 -28 67 -3 38 -3 71 -1 75 7 11 44 -4 59 -25z"/>
<path d="M4870 7149 c-15 -28 19 -200 61 -306 15 -39 34 -102 41 -138 9 -54
16 -69 35 -78 43 -19 51 3 61 174 9 141 13 162 41 226 37 84 37 85 12 107 -28
25 -56 7 -82 -54 -12 -27 -25 -48 -29 -45 -4 2 -10 27 -14 54 -7 57 -16 66
-73 76 -36 6 -43 4 -53 -16z"/>
<path d="M2868 7098 c-18 -60 -18 -409 0 -430 7 -9 27 -18 45 -21 18 -3 51
-11 73 -18 34 -10 47 -10 73 1 28 11 32 17 29 44 -3 29 -5 31 -50 34 l-48 3 0
64 c0 61 1 64 26 67 57 7 57 69 0 76 -25 3 -26 5 -26 69 l0 65 50 -7 c47 -6
50 -5 62 19 9 22 9 29 -4 42 -20 21 -79 33 -155 34 l-62 0 -13 -42z"/>
<path d="M2192 7080 c-75 -11 -111 -28 -118 -56 -9 -34 13 -55 50 -52 30 3 31
2 37 -47 3 -27 16 -115 28 -195 20 -132 25 -147 49 -167 32 -27 70 -30 79 -6
4 9 -1 87 -10 172 -20 186 -22 271 -5 271 6 0 22 9 34 21 22 21 22 46 0 61
-13 9 -72 8 -144 -2z"/>
<path d="M5862 7058 c-29 -35 -62 -170 -74 -302 -13 -152 -9 -172 36 -169 14
1 26 -2 26 -7 0 -17 58 -40 99 -40 30 0 43 5 51 20 16 30 -3 58 -43 62 -30 3
-32 5 -35 47 -5 67 3 87 34 86 16 0 32 8 40 20 12 18 12 24 -2 43 -8 12 -24
22 -35 22 -17 0 -20 5 -15 28 3 15 8 44 12 65 5 30 10 37 23 32 59 -25 72 -27
86 -15 18 15 20 54 3 67 -44 33 -188 62 -206 41z"/>
<path d="M6843 6938 c-13 -22 -53 -187 -72 -303 -29 -169 -13 -224 66 -225 32
0 40 22 48 138 4 56 10 102 15 102 4 0 15 -39 24 -87 36 -177 39 -188 62 -191
40 -6 60 38 89 196 15 81 36 182 47 225 21 87 16 107 -28 107 -31 0 -39 -18
-66 -151 -12 -63 -24 -116 -25 -118 -8 -11 -14 14 -28 115 -12 85 -19 113 -35
126 -11 9 -20 21 -20 27 0 16 -38 51 -54 51 -8 0 -18 -6 -23 -12z"/>
<path d="M870 6900 c-12 -23 -8 -57 36 -325 14 -82 29 -154 34 -159 5 -5 32
-17 60 -27 76 -27 160 -8 160 36 0 27 -21 39 -67 40 l-48 0 -11 75 c-29 198
-59 354 -72 366 -21 22 -79 18 -92 -6z"/>
<path d="M7280 5923 c0 -61 66 -133 122 -133 30 0 20 15 -23 34 -40 18 -79 66
-79 98 0 9 -4 20 -10 23 -6 4 -10 -6 -10 -22z"/>
<path d="M3465 5853 c-3 -15 -16 -49 -29 -75 -26 -52 -22 -61 11 -25 29 31 43
61 43 91 0 35 -18 42 -25 9z"/>
<path d="M2927 5673 c-4 -3 -7 -22 -7 -42 0 -25 -3 -32 -9 -22 -7 11 -11 4
-16 -25 -3 -21 -10 -53 -15 -70 -25 -79 -7 -259 51 -488 16 -65 28 -120 27
-121 -67 -60 -245 -195 -257 -195 -23 0 -143 18 -146 22 -2 2 -6 20 -10 41
l-7 37 41 0 c77 0 161 53 161 102 0 8 13 27 30 41 56 50 52 123 -11 192 -22
24 -39 52 -39 66 0 61 -75 129 -141 129 -20 0 -42 7 -49 15 -36 44 -144 17
-194 -48 -17 -22 -38 -37 -53 -39 -34 -4 -67 -49 -66 -90 0 -69 10 -175 17
-186 4 -7 13 -12 20 -12 9 0 16 -19 20 -53 8 -64 35 -112 76 -135 17 -10 28
-23 25 -30 -3 -8 -5 -22 -5 -32 0 -13 -10 -21 -32 -25 -18 -4 -52 -16 -76 -26
l-44 -19 -67 57 c-79 69 -221 213 -221 224 0 4 13 36 29 71 44 96 161 359 161
364 0 2 11 27 24 56 32 72 41 119 20 111 -13 -5 -14 0 -9 31 6 28 4 37 -10 42
-28 11 -46 -19 -52 -87 -6 -60 -11 -71 -108 -214 -56 -82 -124 -187 -150 -233
-44 -76 -48 -87 -47 -147 1 -36 6 -84 12 -107 42 -153 165 -321 334 -454 42
-32 76 -63 76 -68 0 -5 31 -73 69 -150 77 -159 98 -236 107 -389 l7 -103 -45
-60 c-63 -83 -92 -135 -132 -240 -67 -175 -109 -462 -105 -722 l2 -125 58
-117 c61 -125 92 -160 143 -160 25 0 42 -12 96 -69 50 -54 75 -72 110 -82 79
-22 80 -26 59 -131 -11 -50 -18 -93 -16 -95 6 -6 107 190 107 207 0 8 -12 42
-26 75 -26 61 -32 81 -33 123 -1 14 -16 37 -37 55 -20 18 -51 58 -69 89 -19
32 -66 87 -104 124 -79 74 -92 106 -72 177 7 23 18 76 25 117 13 73 13 74 20
35 17 -101 28 -143 49 -180 20 -36 27 -40 65 -43 52 -4 114 28 200 102 33 30
75 64 94 77 52 37 77 70 98 134 20 60 64 135 78 135 4 0 22 -31 40 -70 18 -38
34 -70 35 -70 4 0 -38 199 -49 233 -7 23 -12 22 -63 -17 -40 -30 -46 -32 -82
-22 -32 8 -41 7 -58 -8 -11 -10 -23 -27 -26 -37 -4 -11 -13 -19 -21 -19 -8 0
-40 -25 -71 -55 -61 -59 -69 -64 -59 -39 16 41 48 345 53 506 5 151 3 187 -11
242 l-18 64 36 144 c40 158 76 338 76 380 0 21 17 40 79 92 98 82 183 173 232
249 101 155 94 249 -43 577 -73 174 -83 242 -49 312 25 53 26 71 5 103 -17 26
-26 30 -37 18z"/>
<path d="M6684 5667 c3 -10 6 -27 6 -38 0 -10 5 -19 11 -19 13 0 3 50 -13 65
-8 7 -9 4 -4 -8z"/>
<path d="M6645 5655 c16 -45 18 -68 5 -60 -9 5 -10 2 -6 -12 9 -27 11 -92 3
-99 -3 -3 -10 9 -16 27 -5 21 -10 26 -10 14 -1 -32 18 -93 35 -110 12 -11 20
-13 37 -4 20 9 21 9 4 -4 -16 -14 -16 -18 17 -83 18 -38 42 -88 52 -111 9 -23
20 -40 24 -38 3 2 6 -4 6 -13 0 -9 19 -73 42 -142 42 -129 51 -181 88 -555 9
-82 19 -153 22 -157 4 -3 33 -8 66 -11 l59 -5 -7 82 c-3 44 -8 95 -11 111 -2
17 -9 71 -15 120 -22 179 -60 339 -116 499 -12 35 -19 44 -26 35 -7 -10 -8 -8
-4 7 7 23 -58 164 -124 268 l-42 66 7 77 c3 43 3 73 -2 67 -4 -6 -18 -16 -29
-22 -19 -10 -23 -9 -28 11 -3 12 -12 31 -21 42 l-17 20 7 -20z m52 -127 c-3
-8 -6 -5 -6 6 -1 11 2 17 5 13 3 -3 4 -12 1 -19z m42 -110 c-7 -13 -17 -26
-23 -30 -8 -6 -6 -11 4 -18 9 -6 10 -10 3 -10 -23 0 -24 20 -2 50 27 36 34 39
18 8z m60 -73 c0 -5 -4 -2 -10 8 -6 9 -13 15 -17 13 -4 -3 -8 4 -8 15 0 19 1
18 18 -3 10 -13 18 -27 17 -33z m47 -281 c8 -20 13 -38 11 -40 -2 -2 -11 14
-20 36 -19 50 -12 53 9 4z m61 -296 c-3 -8 -6 -5 -6 6 -1 11 2 17 5 13 3 -3 4
-12 1 -19z m90 -120 c-3 -7 -5 -2 -5 12 0 14 2 19 5 13 2 -7 2 -19 0 -25z m60
-330 c-3 -8 -6 -5 -6 6 -1 11 2 17 5 13 3 -3 4 -12 1 -19z"/>
<path d="M6620 5632 c0 -12 19 -26 26 -19 2 2 -2 10 -11 17 -9 8 -15 8 -15 2z"/>
<path d="M1020 5187 c0 -34 48 -87 79 -87 31 0 25 27 -7 33 -18 4 -35 18 -49
44 -22 38 -23 38 -23 10z"/>
<path d="M5482 4919 c-24 -60 -24 -78 -2 -64 26 16 54 125 33 125 -5 0 -19
-28 -31 -61z"/>
<path d="M4977 4692 c-9 -10 -19 -38 -23 -62 -4 -25 -13 -58 -21 -74 -52 -102
-118 -333 -108 -376 4 -19 3 -21 -5 -10 -7 11 -10 -23 -10 -112 0 -100 3 -130
15 -142 9 -8 22 -13 30 -10 7 3 23 0 35 -6 16 -9 25 -9 33 -1 6 6 30 11 54 11
33 0 49 -6 73 -30 16 -16 30 -28 31 -27 7 19 3 47 -8 47 -7 0 -13 5 -13 11 0
5 -4 7 -10 4 -5 -3 -10 -1 -10 5 0 6 -8 9 -17 6 -22 -7 -50 8 -34 18 6 4 11 2
11 -3 0 -6 4 -11 8 -11 5 0 -2 22 -15 48 -34 69 -45 188 -31 336 6 67 11 135
12 151 0 17 5 33 9 36 5 4 10 18 10 31 1 15 7 24 14 21 12 -5 43 25 43 40 0 4
12 18 27 32 26 22 26 24 6 18 -13 -3 -20 -10 -16 -16 3 -6 1 -7 -6 -3 -6 4 -9
12 -6 17 4 5 2 9 -4 9 -6 0 -8 6 -5 14 4 9 -5 20 -24 30 -27 14 -31 14 -45 -2z
m-39 -197 c-3 -3 -9 2 -12 12 -6 14 -5 15 5 6 7 -7 10 -15 7 -18z m-91 -407
c-3 -8 -6 -5 -6 6 -1 11 2 17 5 13 3 -3 4 -12 1 -19z"/>
<path d="M3293 4634 c-5 -13 -7 -13 -14 -2 -7 10 -9 9 -9 -5 0 -11 -4 -15 -12
-11 -8 5 -9 0 -6 -14 4 -12 2 -20 -2 -17 -14 9 -23 -83 -12 -113 6 -15 13 -52
17 -82 10 -93 63 -350 85 -416 21 -62 22 -63 56 -62 19 1 40 -4 46 -10 7 -7
20 -12 29 -12 31 0 58 -71 60 -158 2 -76 3 -79 41 -123 22 -24 36 -38 32 -30
-5 10 -3 12 5 7 7 -4 10 -13 8 -19 -2 -7 14 -29 36 -50 31 -30 42 -35 49 -25
8 10 9 9 5 -4 -5 -15 18 -47 27 -37 2 2 22 41 44 86 34 67 38 82 26 87 -9 3
-19 4 -24 1 -4 -3 -20 11 -35 31 -16 20 -33 33 -41 30 -7 -3 -16 0 -20 6 -5 7
-2 8 7 3 11 -7 11 -5 -1 10 -14 17 -15 15 -20 -26 -4 -37 -9 -45 -29 -47 -35
-5 -43 9 -43 84 0 65 -2 71 -36 106 -19 20 -40 34 -45 31 -6 -4 -7 -1 -2 6 4
7 -1 22 -12 34 -11 12 -30 40 -43 62 -13 22 -26 42 -29 45 -4 3 -7 12 -8 20
-2 8 -21 68 -43 132 -44 128 -79 272 -80 328 0 20 7 46 16 58 9 13 13 26 10
29 -3 3 -11 -6 -17 -21 -7 -14 -16 -26 -20 -26 -10 0 -3 79 7 89 4 3 4 -3 1
-14 -6 -17 -4 -17 13 4 11 13 20 28 19 35 0 7 -2 7 -6 -1 -2 -7 -9 -13 -15
-13 -6 0 -8 7 -4 15 3 8 3 15 0 15 -2 0 -7 -7 -11 -16z m44 -461 c-3 -10 -5
-4 -5 12 0 17 2 24 5 18 2 -7 2 -21 0 -30z m224 -365 c11 -21 11 -22 -4 -9
-10 7 -17 17 -17 22 0 15 9 10 21 -13z m134 -291 c4 5 5 2 1 -5 -6 -9 -13 -8
-31 5 -13 10 -27 25 -30 33 -4 8 7 3 23 -13 15 -15 32 -24 37 -20z m49 -31
c-3 -9 -10 -16 -15 -16 -5 0 -4 9 3 20 14 22 21 20 12 -4z"/>
<path d="M5514 4519 c-97 -27 -122 -161 -39 -215 17 -11 24 -22 19 -33 -3 -9
-12 -58 -18 -110 -15 -109 -7 -169 27 -213 23 -29 23 -31 9 -72 -9 -23 -13
-50 -9 -60 10 -25 72 -48 120 -44 l42 3 5 97 c3 53 7 98 10 101 3 2 31 19 63
37 58 33 66 45 45 70 -11 12 -10 12 4 1 15 -11 21 -7 47 29 47 65 64 120 59
190 -7 94 -62 151 -159 164 -28 4 -73 17 -98 30 -60 30 -89 36 -127 25z m36
-256 c-14 -2 -31 -12 -37 -21 -7 -9 -13 -11 -13 -6 0 18 24 34 50 33 l25 -2
-25 -4z m89 3 c-2 -2 -17 -6 -34 -10 -22 -5 -26 -4 -15 4 14 9 59 15 49 6z
m76 -26 c-3 -5 1 -10 9 -10 9 0 16 -7 16 -17 0 -14 -2 -14 -20 2 -17 15 -19
35 -4 35 3 0 2 -4 -1 -10z m-142 -38 c-5 -10 -8 -11 -13 -2 -4 7 -13 9 -20 5
-9 -6 -9 -10 1 -17 10 -6 7 -7 -8 -3 -15 4 -23 2 -23 -6 0 -7 -3 -9 -7 -5 -10
10 37 45 58 43 10 -1 15 -7 12 -15z m104 -8 c-3 -3 -12 -4 -19 -1 -8 3 -5 6 6
6 11 1 17 -2 13 -5z m70 -26 c-3 -8 -6 -5 -6 6 -1 11 2 17 5 13 3 -3 4 -12 1
-19z m-122 -16 c-3 -3 -11 0 -18 7 -9 10 -8 11 6 5 10 -3 15 -9 12 -12z m-116
-35 c1 -5 -6 -1 -15 7 -8 9 -12 21 -8 28 5 8 10 6 15 -8 4 -10 8 -23 8 -27z
m151 18 c-7 -9 -15 -13 -17 -11 -6 6 20 36 26 30 2 -2 -2 -10 -9 -19z m-110
-10 c-7 -8 -17 -15 -23 -15 -6 0 -2 7 9 15 25 19 30 19 14 0z m82 -20 c16 -20
16 -21 0 -21 -11 0 -18 9 -19 24 0 13 0 22 1 20 0 -2 9 -12 18 -23z m158 -55
c0 -5 -5 -10 -11 -10 -5 0 -7 5 -4 10 3 6 8 10 11 10 2 0 4 -4 4 -10z m-35
-10 c-3 -5 -14 -10 -23 -9 -14 0 -13 2 3 9 27 11 27 11 20 0z m-45 -36 c-15
-17 -17 -17 -23 -1 -3 8 3 14 15 14 16 2 17 -1 8 -13z m-188 -28 c7 4 8 2 4
-5 -9 -14 -36 3 -36 23 0 6 5 3 11 -7 6 -9 15 -14 21 -11z"/>
<path d="M6720 4483 c0 -11 -11 -36 -24 -55 -14 -21 -22 -46 -21 -63 4 -36
-31 -78 -45 -55 -7 11 -3 21 16 38 15 13 24 26 20 29 -8 9 -56 -37 -56 -54 0
-7 -4 -13 -10 -13 -5 0 -10 -5 -10 -11 0 -6 7 -8 16 -5 15 6 15 4 3 -11 -7
-10 -22 -26 -31 -36 -20 -20 -16 -39 6 -31 8 3 18 -8 26 -28 25 -69 43 -108
47 -104 2 2 15 -7 28 -20 13 -13 32 -24 41 -24 14 0 16 -9 12 -60 -4 -57 -3
-60 19 -60 13 0 41 16 63 36 l39 36 -20 39 -20 40 27 55 c15 30 24 57 20 61
-3 3 -1 12 5 20 9 10 15 10 25 2 11 -9 14 -8 14 4 0 9 -9 19 -20 22 -15 5 -20
15 -20 45 0 40 -27 110 -42 110 -5 0 -7 4 -4 9 3 4 -9 21 -27 36 -18 15 -42
37 -54 48 l-23 20 0 -20z m88 -83 c-1 -3 2 -13 7 -23 11 -26 1 -30 -34 -12
-32 16 -40 30 -20 37 17 6 48 4 47 -2z m-13 -128 c-3 -3 -11 0 -18 7 -9 10 -8
11 6 5 10 -3 15 -9 12 -12z m-129 -12 c8 0 14 -5 14 -10 0 -7 -6 -7 -20 0 -11
6 -20 16 -19 23 0 9 2 9 6 0 2 -7 11 -13 19 -13z m101 -32 c-3 -7 -5 -2 -5 12
0 14 2 19 5 13 2 -7 2 -19 0 -25z m42 -100 c-8 -13 -12 -26 -11 -29 1 -4 -9
-5 -21 -2 -18 4 -19 3 -7 -7 12 -9 10 -10 -10 -5 -53 14 -78 27 -88 50 -11 23
-10 23 60 21 55 -1 72 2 77 14 4 12 6 12 9 -2 2 -9 -2 -27 -9 -40z m-145 -14
c3 -8 2 -12 -4 -9 -6 3 -10 10 -10 16 0 14 7 11 14 -7z"/>
<path d="M1007 4388 c-9 -5 -17 -18 -17 -28 0 -24 41 -53 63 -45 8 4 18 2 22
-4 4 -7 0 -8 -11 -4 -14 5 -12 -2 8 -28 33 -42 130 -226 157 -296 20 -50 18
-66 -5 -43 -5 5 -31 13 -56 16 -66 9 -146 -19 -251 -89 -71 -48 -90 -57 -102
-47 -8 7 -13 16 -10 20 3 4 -3 45 -12 89 -13 59 -20 77 -25 64 -6 -13 -7 -12
-4 6 6 31 -4 112 -14 106 -3 -2 -2 22 3 53 15 96 14 113 -10 129 -20 14 -23
13 -37 -14 -8 -16 -18 -72 -21 -124 -9 -117 11 -410 28 -422 8 -6 7 -7 -4 -4
-32 10 -225 -10 -258 -28 -84 -43 -130 -125 -131 -231 0 -57 5 -80 27 -124 40
-78 89 -114 156 -114 49 -1 59 3 132 57 44 31 86 57 93 57 7 0 17 -11 22 -25
11 -28 55 -54 101 -59 21 -2 42 -14 57 -32 64 -76 112 -124 124 -124 9 0 9 3
-2 10 -13 8 -13 10 1 10 19 0 32 39 23 67 -5 14 -4 15 4 4 8 -11 13 -5 21 25
14 52 14 151 -1 160 -6 4 -8 3 -5 -3 3 -5 0 -10 -8 -10 -18 0 14 47 52 77 29
22 45 22 51 -1 3 -11 2 -11 -6 -1 -7 11 -10 10 -14 -5 -3 -10 -9 -25 -12 -34
-7 -17 -3 -18 66 -19 43 -1 61 7 52 22 -4 5 4 5 17 -2 45 -23 91 -62 109 -93
l19 -31 19 45 c61 142 87 367 58 493 -34 143 -164 342 -304 464 -36 31 -77 69
-91 83 -33 32 -53 39 -74 27z m-280 -117 c0 -11 -5 -18 -9 -15 -4 3 -5 11 -1
19 7 21 12 19 10 -4z m515 -431 c4 -3 -3 -12 -15 -19 -15 -9 -18 -10 -10 -1 6
7 9 20 6 29 -4 10 -3 12 3 6 5 -5 12 -12 16 -15z m59 -7 c12 -16 12 -17 -2 -6
-9 7 -20 9 -24 5 -5 -4 -5 -1 -1 6 9 16 11 15 27 -5z m22 -41 c-10 -10 -20
-17 -22 -16 -6 5 20 34 30 34 5 0 1 -8 -8 -18z m-104 -5 c-2 -1 -12 -9 -22
-16 -15 -12 -17 -12 -11 3 3 9 13 16 22 16 8 0 13 -1 11 -3z m71 -1 c0 -2 -7
-6 -15 -10 -8 -3 -15 -1 -15 4 0 6 7 10 15 10 8 0 15 -2 15 -4z m-33 -48 c-3
-8 -6 -5 -6 6 -1 11 2 17 5 13 3 -3 4 -12 1 -19z m-132 -44 c-8 -16 -15 -24
-15 -19 0 6 -5 2 -11 -8 -6 -9 -7 -27 -4 -40 5 -17 4 -19 -4 -7 -16 23 -14 34
17 72 32 42 38 43 17 2z m160 8 c-3 -3 -11 0 -18 7 -9 10 -8 11 6 5 10 -3 15
-9 12 -12z m-106 -15 c-9 -7 -14 -19 -12 -27 4 -13 3 -13 -6 0 -7 10 -5 19 7
31 9 9 19 14 22 12 3 -3 -2 -10 -11 -16z m-332 -9 c-3 -8 -6 -5 -6 6 -1 11 2
17 5 13 3 -3 4 -12 1 -19z m-130 -25 c-3 -10 -5 -4 -5 12 0 17 2 24 5 18 2 -7
2 -21 0 -30z m518 27 c3 -5 1 -10 -4 -10 -6 0 -11 5 -11 10 0 6 2 10 4 10 3 0
8 -4 11 -10z m122 -51 c-3 -10 0 -19 5 -19 6 0 -1 -9 -15 -20 -14 -11 -32 -20
-40 -20 -9 0 -19 -4 -22 -10 -3 -5 -12 -10 -18 -9 -7 0 -6 3 2 6 10 4 8 9 -9
18 l-23 13 21 6 c12 4 22 12 22 18 0 6 3 8 7 5 9 -10 53 33 53 52 1 13 3 13
11 -2 6 -10 9 -27 6 -38z m-461 -49 c0 -12 -4 -16 -9 -11 -5 5 -6 14 -3 20 10
15 12 14 12 -9z m230 -28 c-17 -16 -18 -16 -5 5 7 12 15 20 18 17 3 -2 -3 -12
-13 -22z m-32 -11 c-2 -3 -12 3 -22 13 -16 17 -16 18 5 5 12 -7 20 -15 17 -18z
m-140 -9 c3 -5 -1 -9 -9 -9 -8 0 -12 4 -9 9 3 4 7 8 9 8 2 0 6 -4 9 -8z m-186
-57 c-3 -3 -9 2 -12 12 -6 14 -5 15 5 6 7 -7 10 -15 7 -18z m223 8 c13 -16 12
-17 -3 -4 -10 7 -18 15 -18 17 0 8 8 3 21 -13z m183 6 c-3 -6 0 -15 7 -20 9
-6 10 -9 2 -9 -15 0 -26 17 -18 30 3 6 8 10 11 10 3 0 2 -5 -2 -11z m-380 -75
c3 -8 2 -12 -4 -9 -6 3 -10 10 -10 16 0 14 7 11 14 -7z m381 -14 c3 -6 -1 -7
-9 -4 -18 7 -21 14 -7 14 6 0 13 -4 16 -10z m62 -6 c-3 -3 -12 -4 -19 -1 -8 3
-5 6 6 6 11 1 17 -2 13 -5z m-399 -47 c7 -16 8 -26 3 -23 -5 3 -14 20 -20 38
-13 38 0 26 17 -15z m62 -87 c0 -6 -9 -2 -20 7 -11 10 -20 19 -20 21 0 1 9 -2
20 -8 11 -6 20 -15 20 -20z m23 -15 c-3 -9 -8 -14 -10 -11 -3 3 -2 9 2 15 9
16 15 13 8 -4z m134 -17 c-3 -8 -6 -5 -6 6 -1 11 2 17 5 13 3 -3 4 -12 1 -19z"/>
<path d="M4065 3930 c-29 -40 -43 -50 -65 -50 -16 0 -36 -8 -46 -17 -20 -20
-4 -29 24 -14 14 7 19 7 19 -4 0 -8 -3 -14 -6 -13 -28 3 -31 -5 -30 -69 2 -87
6 -103 25 -96 11 4 12 9 5 16 -6 6 -11 20 -11 31 0 16 3 17 12 8 7 -7 31 -12
55 -12 42 0 43 1 44 33 0 17 5 41 10 52 6 14 8 -1 4 -49 -5 -73 -13 -85 -55
-86 -18 0 -21 -3 -11 -9 38 -24 97 26 105 89 2 19 7 61 11 93 7 53 6 57 -11
51 -16 -6 -17 -5 -6 7 16 18 16 20 -12 57 l-24 33 -37 -51z m55 -85 c0 -8 -7
-15 -15 -15 -9 0 -12 6 -9 15 4 8 10 15 15 15 5 0 9 -7 9 -15z m-126 -60 c-4
-8 -8 -15 -10 -15 -2 0 -4 7 -4 15 0 8 4 15 10 15 5 0 7 -7 4 -15z"/>
<path d="M4006 3954 c-5 -14 -4 -15 9 -4 17 14 19 20 6 20 -5 0 -12 -7 -15
-16z"/>
<path d="M3960 3905 c-19 -14 -29 -25 -23 -25 5 0 23 11 39 25 37 32 28 32
-16 0z"/>
<path d="M3388 3891 c-25 -9 -7 -32 33 -45 38 -13 58 -46 59 -96 0 -19 8 -44
16 -55 15 -19 16 -14 12 57 -3 64 -7 81 -27 102 -27 29 -69 46 -93 37z"/>
<path d="M4828 3878 c2 -11 12 -22 21 -26 24 -9 40 -34 41 -63 0 -14 9 -34 20
-44 20 -18 20 -17 20 33 0 65 18 85 60 70 40 -14 44 -21 42 -95 -1 -73 11 -75
28 -5 12 52 4 90 -27 124 -18 20 -73 24 -105 7 -14 -8 -27 -8 -42 -1 -11 6
-31 12 -42 15 -17 4 -20 1 -16 -15z"/>
<path d="M3427 3788 c31 -46 46 -30 18 19 -10 16 -14 20 -11 8 6 -19 5 -19 -8
-2 -26 34 -26 16 1 -25z"/>
<path d="M4956 3822 c-2 -4 -6 -31 -7 -60 -3 -49 -1 -54 31 -77 19 -14 34 -25
34 -25 4 0 -4 145 -8 156 -6 15 -41 20 -50 6z"/>
<path d="M3923 3803 c-19 -7 -17 -109 1 -116 20 -8 24 9 17 69 -4 34 -10 49
-18 47z"/>
<path d="M3863 3779 c-13 -13 -5 -56 13 -63 11 -4 14 4 14 34 0 40 -7 49 -27
29z"/>
<path d="M4220 3781 c0 -6 4 -13 10 -16 6 -3 7 1 4 9 -7 18 -14 21 -14 7z"/>
<path d="M5733 3783 c-18 -7 9 -33 34 -33 11 0 27 -6 38 -13 24 -19 3 -32 -26
-16 -16 8 -20 8 -14 0 4 -7 24 -19 46 -27 24 -10 36 -21 32 -28 -3 -6 4 -2 18
9 13 11 19 13 12 5 -8 -12 -2 -26 29 -69 31 -41 43 -50 50 -40 7 11 8 9 4 -5
-7 -20 20 -59 35 -51 4 3 11 0 15 -6 4 -8 3 -9 -4 -5 -19 12 -14 -9 7 -28 15
-13 20 -14 24 -4 3 7 5 2 4 -11 -1 -13 4 -26 12 -29 9 -3 11 0 6 8 -5 9 -4 11
4 6 6 -4 9 -12 5 -17 -9 -15 15 -39 32 -32 10 3 12 0 9 -10 -12 -31 158 -145
218 -147 32 0 118 42 113 56 -3 7 0 11 7 8 7 -2 37 21 67 51 62 63 62 71 -6
116 -68 46 -85 45 -145 -6 -29 -25 -58 -45 -65 -45 -7 0 -21 -3 -31 -6 -13 -4
-14 -3 -5 3 10 7 2 19 -32 46 -24 21 -47 37 -51 37 -3 0 -20 13 -38 30 -33 31
-54 40 -41 18 4 -8 3 -10 -2 -5 -5 5 -9 13 -9 17 0 5 -33 34 -72 65 -69 53
-101 63 -89 26 5 -14 4 -14 -7 1 -11 14 -16 15 -27 5 -12 -10 -12 -9 -1 5 7 9
10 23 6 30 -4 7 0 5 8 -5 8 -10 18 -14 21 -9 7 12 -28 44 -45 40 -7 -2 -14 3
-15 10 -1 6 -2 16 -3 20 -3 24 -95 49 -128 35z m242 -171 c6 -4 11 -15 13 -26
3 -15 1 -16 -11 -5 -8 8 -13 17 -11 21 2 3 -2 9 -8 11 -7 3 -8 6 -3 6 6 0 15
-3 20 -7z m211 -137 c-1 -8 -5 -17 -8 -21 -5 -4 -4 16 1 34 3 9 9 -1 7 -13z
m199 -33 c-3 -3 -11 0 -18 7 -9 10 -8 11 6 5 10 -3 15 -9 12 -12z m-264 -29
c13 -16 12 -17 -3 -4 -10 7 -18 15 -18 17 0 8 8 3 21 -13z m170 -151 c-7 -2
-18 1 -23 6 -8 8 -4 9 13 5 13 -4 18 -8 10 -11z"/>
<path d="M4163 3765 c0 -8 4 -12 9 -9 4 3 8 9 8 15 0 5 -4 9 -8 9 -5 0 -9 -7
-9 -15z"/>
<path d="M3080 3740 c29 -41 63 -62 95 -58 37 4 29 21 -23 40 -24 9 -52 24
-61 32 -29 26 -34 18 -11 -14z"/>
<path d="M3618 3716 c-4 -55 -1 -66 18 -66 19 0 19 83 0 99 -12 10 -15 4 -18
-33z"/>
<path d="M4240 3746 c0 -2 7 -9 15 -16 9 -7 15 -8 15 -2 0 5 -7 12 -15 16 -8
3 -15 4 -15 2z"/>
<path d="M4245 3670 c10 -11 20 -20 23 -20 3 0 -3 9 -13 20 -10 11 -20 20 -23
20 -3 0 3 -9 13 -20z"/>
<path d="M3995 3631 c-3 -2 1 -11 8 -20 11 -14 10 -15 -7 -1 -15 11 -20 12
-23 3 -3 -7 -15 -13 -28 -13 -18 0 -29 -10 -41 -36 l-18 -37 29 -24 c21 -18
34 -23 54 -18 32 8 28 3 39 53 7 30 7 42 -2 43 -6 0 8 9 32 19 23 11 42 21 42
24 0 6 -80 13 -85 7z"/>
<path d="M4751 3449 c-47 -51 -33 -111 31 -131 22 -6 49 -26 68 -49 18 -22 36
-36 44 -33 8 3 13 -1 13 -9 -2 -18 134 -129 150 -122 7 2 12 0 10 -6 -3 -15
102 -72 119 -65 8 3 13 2 10 -2 -2 -4 8 -13 22 -20 33 -14 150 -31 158 -23 3
3 18 6 33 7 15 0 43 10 63 22 19 12 40 22 45 22 13 0 155 139 171 169 12 20
12 25 0 32 -7 5 -18 9 -25 9 -12 0 -67 22 -105 41 -32 16 -46 10 -109 -51 -42
-41 -72 -62 -96 -66 -48 -9 -147 2 -184 21 -16 9 -35 13 -41 9 -7 -4 -8 -3 -4
4 4 7 2 12 -4 12 -6 0 -40 18 -76 40 -60 37 -100 55 -64 29 13 -9 13 -10 0 -6
-8 2 -15 9 -15 15 0 12 -34 41 -48 42 -5 0 -5 -5 -1 -12 4 -7 3 -8 -5 -4 -6 4
-9 11 -6 16 3 4 -2 13 -10 20 -8 7 -15 22 -15 34 0 12 -7 31 -15 42 -13 18
-14 18 -8 -5 5 -20 4 -22 -13 -13 -10 6 -29 20 -41 31 -27 26 -28 26 -52 0z
m24 -117 c-3 -3 -11 0 -18 7 -9 10 -8 11 6 5 10 -3 15 -9 12 -12z m295 -97
c33 -19 21 -19 -21 0 -19 8 -27 14 -19 14 8 0 26 -6 40 -14z m-87 -34 c12 7
17 7 13 1 -3 -6 0 -12 6 -15 7 -3 0 -4 -15 -3 -15 2 -32 8 -37 14 -7 9 -7 9 2
2 7 -6 18 -5 31 1z"/>
<path d="M4059 3393 c-18 -25 -28 -43 -23 -40 5 3 10 -3 10 -13 0 -15 -3 -17
-15 -7 -12 10 -12 9 -1 -10 8 -12 18 -19 22 -17 4 3 8 -2 8 -10 0 -8 5 -18 12
-22 7 -5 8 -3 3 6 -5 9 -4 11 4 6 6 -4 9 -11 6 -16 -6 -10 104 -116 117 -112
5 1 7 -1 4 -6 -3 -5 8 -22 24 -37 17 -16 30 -25 30 -22 0 4 14 -8 31 -28 18
-20 33 -34 35 -32 2 2 29 -20 61 -49 31 -29 61 -50 66 -47 6 3 7 1 3 -5 -4 -6
5 -39 20 -74 68 -160 151 -398 157 -447 4 -30 11 -59 17 -65 12 -12 13 -5 2
26 -5 13 -5 34 -1 48 7 23 7 24 8 3 1 -27 32 -93 43 -93 5 0 13 11 18 25 11
29 26 32 52 8 14 -12 17 -13 13 -2 -3 8 -18 23 -32 33 -16 12 -23 14 -18 5 5
-8 5 -11 -1 -6 -5 5 -9 12 -9 15 0 4 -8 18 -17 32 -8 14 -19 55 -22 91 -7 74
-42 219 -57 234 -5 5 -9 14 -9 21 0 6 -9 33 -21 59 -16 37 -23 44 -31 34 -8
-11 -9 -10 -4 4 9 28 -73 174 -89 159 -5 -4 -5 -2 -2 4 7 12 -38 79 -53 79 -4
0 -12 4 -17 9 -5 5 -3 6 5 2 20 -12 14 3 -19 44 -18 22 -36 37 -41 34 -5 -3
-7 0 -6 8 2 7 -3 12 -10 10 -8 -1 -11 2 -8 7 9 14 -125 143 -142 136 -7 -2
-10 0 -7 5 5 8 -64 60 -79 60 -3 0 -19 -21 -37 -47z m14 -48 c-3 -9 -8 -14
-10 -11 -3 3 -2 9 2 15 9 16 15 13 8 -4z m82 -105 c-4 -6 1 -23 10 -38 15 -25
15 -25 -9 3 -18 21 -22 31 -13 37 16 10 19 10 12 -2z m70 -50 c-3 -5 -12 -10
-18 -10 -7 0 -6 4 3 10 19 12 23 12 15 0z m89 -122 c-3 -5 -12 -4 -20 3 -8 6
-12 14 -9 17 3 3 -1 12 -7 21 -7 9 0 5 14 -8 15 -13 25 -28 22 -33z m132 -6
c0 -10 -8 -18 -18 -18 -22 0 -22 1 -2 20 19 20 20 20 20 -2z m-71 -31 c3 -5 2
-12 -3 -15 -5 -3 -9 1 -9 9 0 17 3 19 12 6z m122 -83 c-3 -8 -6 -5 -6 6 -1 11
2 17 5 13 3 -3 4 -12 1 -19z m80 -110 c-3 -8 -6 -5 -6 6 -1 11 2 17 5 13 3 -3
4 -12 1 -19z"/>
<path d="M7116 3117 c3 -10 9 -15 12 -12 3 3 0 11 -7 18 -10 9 -11 8 -5 -6z"/>
<path d="M7130 3055 c0 -5 5 -17 10 -25 5 -8 10 -10 10 -5 0 6 -5 17 -10 25
-5 8 -10 11 -10 5z"/>
<path d="M1155 3026 c-79 -20 -125 -43 -126 -63 0 -12 -2 -13 -6 -5 -4 10 -9
8 -19 -7 -10 -13 -11 -27 -5 -43 7 -20 6 -24 -10 -24 -14 0 -15 3 -7 13 6 8 9
16 6 18 -3 3 -27 -18 -53 -47 -85 -94 -127 -146 -108 -135 6 4 14 3 17 -2 3
-5 45 -21 93 -37 75 -25 104 -29 198 -29 89 0 118 4 153 20 l44 20 -6 89 c-3
49 -6 119 -6 156 l0 68 -44 11 c-53 13 -56 13 -121 -3z m-199 -166 c0 -12 -4
-16 -9 -11 -5 5 -6 14 -3 20 10 15 12 14 12 -9z"/>
<path d="M5690 2935 c-209 -65 -405 -128 -407 -129 -1 -1 2 -58 8 -126 18
-235 70 -488 143 -695 19 -55 33 -101 32 -102 -4 -4 -261 133 -320 171 -38 24
-57 31 -64 24 -8 -8 -15 -8 -25 0 -8 7 -17 9 -21 5 -14 -14 -35 -11 -29 4 5
12 7 12 14 1 6 -8 9 -9 9 -1 0 13 -61 53 -82 53 -8 0 -24 -19 -35 -42 -12 -24
-38 -71 -58 -106 -20 -35 -30 -60 -23 -56 7 5 41 27 75 51 35 24 67 43 72 43
5 0 16 -11 25 -25 9 -14 21 -23 25 -20 10 6 8 -47 -3 -86 -7 -23 -1 -32 46
-73 66 -58 220 -161 313 -209 151 -78 186 -83 257 -38 90 57 128 199 108 401
-11 102 -36 244 -47 265 -4 7 -3 7 4 0 6 -5 39 -91 74 -190 l63 -180 7 -405
c4 -223 7 -406 8 -407 0 -2 11 -3 24 -3 47 0 97 -20 97 -40 0 -10 6 -21 13
-23 7 -3 6 -6 -5 -6 -10 -1 -18 8 -21 21 -2 13 -4 1 -5 -27 0 -97 -1 -97 133
-127 66 -15 121 -26 123 -24 1 2 -33 36 -77 75 -71 65 -78 75 -72 99 4 16 15
28 27 30 19 3 21 15 32 175 6 95 19 271 28 392 19 252 15 321 -37 520 -92 360
-281 824 -339 832 -8 1 -49 -9 -90 -22z m347 -1951 c-3 -3 -12 -4 -19 -1 -8 3
-5 6 6 6 11 1 17 -2 13 -5z"/>
<path d="M7032 2860 c0 -14 2 -19 5 -12 2 6 2 18 0 25 -3 6 -5 1 -5 -13z"/>
<path d="M7021 2813 c-1 -6 -4 -20 -7 -30 -5 -17 -5 -17 6 0 6 10 9 23 6 30
-3 9 -5 9 -5 0z"/>
<path d="M3580 2741 c0 -26 146 -98 279 -137 101 -29 111 -30 111 -4 0 15 -7
20 -25 20 -48 0 -238 68 -357 128 -5 2 -8 -1 -8 -7z"/>
<path d="M6991 2724 c0 -11 3 -14 6 -6 3 7 2 16 -1 19 -3 4 -6 -2 -5 -13z"/>
<path d="M6975 2689 c-4 -6 -5 -12 -2 -15 2 -3 7 2 10 11 7 17 1 20 -8 4z"/>
<path d="M1393 2613 c15 -2 39 -2 55 0 15 2 2 4 -28 4 -30 0 -43 -2 -27 -4z"/>
<path d="M1538 2603 c6 -2 18 -2 25 0 6 3 1 5 -13 5 -14 0 -19 -2 -12 -5z"/>
<path d="M1588 2593 c7 -3 16 -2 19 1 4 3 -2 6 -13 5 -11 0 -14 -3 -6 -6z"/>
<path d="M1548 2583 c7 -3 16 -2 19 1 4 3 -2 6 -13 5 -11 0 -14 -3 -6 -6z"/>
<path d="M1716 2545 c10 -8 24 -14 29 -14 6 0 1 6 -9 14 -11 8 -24 15 -30 15
-5 0 -1 -7 10 -15z"/>
<path d="M1687 2539 c7 -7 15 -10 18 -7 3 3 -2 9 -12 12 -14 6 -15 5 -6 -5z"/>
<path d="M1760 2526 c0 -2 8 -10 18 -17 15 -13 16 -12 3 4 -13 16 -21 21 -21
13z"/>
<path d="M1810 2473 c0 -5 13 -17 28 -27 l27 -19 -24 26 c-26 28 -31 32 -31
20z"/>
<path d="M4760 2335 c33 -35 40 -39 40 -30 0 7 -59 65 -67 65 -4 0 8 -16 27
-35z"/>
<path d="M1810 2350 c0 -5 11 -10 25 -10 14 0 25 5 25 10 0 6 -11 10 -25 10
-14 0 -25 -4 -25 -10z"/>
<path d="M4720 2333 c0 -5 12 -20 26 -34 24 -21 26 -22 16 -3 -13 25 -42 50
-42 37z"/>
<path d="M6750 2318 c-30 -4 -83 -8 -117 -9 l-63 -2 0 -47 c0 -78 10 -106 59
-166 42 -53 151 -146 183 -156 10 -4 10 -8 1 -19 -18 -23 -32 -173 -45 -492
-12 -292 -11 -300 8 -315 16 -12 16 -14 2 -9 -31 11 -20 -10 17 -33 19 -12 35
-27 35 -33 0 -53 53 140 100 363 6 25 19 83 30 130 11 47 17 96 14 110 -5 20
-4 22 6 10 9 -12 11 -10 7 13 -2 15 -1 27 3 27 4 0 10 17 13 38 9 54 29 78 53
64 16 -9 21 -4 41 45 17 43 20 60 12 75 -8 15 -6 32 11 71 19 43 51 129 64
172 2 6 6 17 9 25 3 8 12 35 20 60 l15 45 -36 6 c-141 24 -174 28 -232 31
l-65 3 -13 -60 c-16 -71 -21 -78 -46 -60 -18 13 -18 16 -2 55 29 74 31 73 -84
58z m387 -270 c-3 -8 -6 -5 -6 6 -1 11 2 17 5 13 3 -3 4 -12 1 -19z m-36 -71
c-10 -9 -11 -8 -5 6 3 10 9 15 12 12 3 -3 0 -11 -7 -18z m-31 -67 c6 -11 8
-20 6 -20 -3 0 -10 9 -16 20 -6 11 -8 20 -6 20 3 0 10 -9 16 -20z m-23 -85 c0
-8 -4 -12 -9 -9 -5 3 -6 10 -3 15 9 13 12 11 12 -6z m-240 -27 c-3 -8 -6 -5
-6 6 -1 11 2 17 5 13 3 -3 4 -12 1 -19z m201 -13 c-6 -14 -13 -23 -15 -21 -5
5 15 46 22 46 3 0 -1 -11 -7 -25z m-91 -387 c-3 -8 -6 -5 -6 6 -1 11 2 17 5
13 3 -3 4 -12 1 -19z"/>
<path d="M1871 2214 c0 -11 3 -14 6 -6 3 7 2 16 -1 19 -3 4 -6 -2 -5 -13z"/>
<path d="M1772 2015 c-29 -45 -22 -45 12 0 15 19 23 35 19 35 -4 0 -18 -16
-31 -35z"/>
<path d="M7550 1912 c-1 -34 53 -101 92 -115 33 -12 28 11 -7 33 -19 12 -35
25 -35 28 0 14 -49 67 -50 54z"/>
<path d="M1061 1643 c0 -6 -4 -19 -8 -29 -5 -13 -3 -15 8 -9 9 6 9 2 -3 -11
-22 -26 -56 -196 -40 -202 7 -2 12 -9 12 -16 0 -7 9 -21 19 -30 19 -17 20 -17
38 11 10 15 37 52 61 82 24 29 40 56 37 59 -3 4 -11 0 -16 -8 -9 -13 -10 -13
-6 0 2 8 11 15 20 15 15 0 79 67 116 120 8 11 -3 1 -24 -23 -28 -32 -40 -40
-46 -30 -7 11 -9 11 -9 0 0 -7 -5 -10 -11 -6 -7 4 -7 -1 1 -16 7 -12 8 -20 2
-16 -5 3 -15 19 -22 36 -12 30 -48 48 -69 35 -6 -3 -11 -1 -11 4 0 6 -9 11
-19 11 -11 0 -22 8 -24 18 -3 9 -5 12 -6 5z"/>
<path d="M5205 1408 c-4 -18 -18 -50 -32 -71 -28 -44 -27 -53 4 -32 25 18 53
74 53 109 0 37 -17 32 -25 -6z"/>
<path d="M1373 1274 c-7 -18 3 -218 13 -276 6 -36 12 -41 76 -53 17 -4 39 41
69 145 7 25 18 54 25 65 16 26 30 96 15 75 -10 -13 -11 -13 -11 0 -1 28 -47
50 -115 55 -54 4 -67 2 -72 -11z m14 -91 c-3 -10 -5 -4 -5 12 0 17 2 24 5 18
2 -7 2 -21 0 -30z"/>
<path d="M3707 961 l-28 -90 41 -131 c23 -72 43 -130 45 -128 4 4 -13 256 -19
281 -2 9 0 15 5 12 4 -3 18 13 29 35 l21 42 -26 34 c-14 19 -29 34 -33 34 -4
0 -20 -40 -35 -89z m83 25 c0 -3 -4 -8 -10 -11 -5 -3 -10 -1 -10 4 0 6 5 11
10 11 6 0 10 -2 10 -4z"/>
<path d="M4667 754 c7 -3 10 -11 8 -17 -2 -7 10 -51 28 -99 l32 -87 113 -81
c62 -44 115 -80 118 -80 6 0 -191 228 -219 253 -10 9 -14 17 -8 17 14 0 5 43
-16 80 -13 23 -14 24 -10 2 3 -12 1 -20 -4 -16 -5 3 -9 12 -9 20 0 8 -9 14
-22 13 -13 0 -18 -3 -11 -5z m57 -60 c3 -8 2 -12 -4 -9 -6 3 -10 10 -10 16 0
14 7 11 14 -7z m-9 -24 c3 -5 1 -10 -4 -10 -6 0 -11 5 -11 10 0 6 2 10 4 10 3
0 8 -4 11 -10z"/>
</g>
</svg>
